<svg width="50" height="50" viewBox="0 0 50 50" fill="none" xmlns="http://www.w3.org/2000/svg">
<circle cx="25" cy="25" r="23" fill="url(#paint0_radial_1_2)"/>
<path d="M31.4318 25.7273C31.4318 27.2945 31.1383 28.6368 30.5511 29.7543C29.9688 30.867 29.1733 31.7192 28.1648 32.3111C27.161 32.9029 26.0223 33.1989 24.7486 33.1989C23.4749 33.1989 22.3338 32.9029 21.3253 32.3111C20.3215 31.7145 19.526 30.8598 18.9389 29.7472C18.3565 28.6297 18.0653 27.2898 18.0653 25.7273C18.0653 24.16 18.3565 22.8201 18.9389 21.7074C19.526 20.59 20.3215 19.7353 21.3253 19.1435C22.3338 18.5516 23.4749 18.2557 24.7486 18.2557C26.0223 18.2557 27.161 18.5516 28.1648 19.1435C29.1733 19.7353 29.9688 20.59 30.5511 21.7074C31.1383 22.8201 31.4318 24.16 31.4318 25.7273ZM28.7827 25.7273C28.7827 24.6241 28.6098 23.6937 28.2642 22.9361C27.9233 22.1738 27.4498 21.5985 26.8438 21.2102C26.2377 20.8172 25.5393 20.6207 24.7486 20.6207C23.9579 20.6207 23.2595 20.8172 22.6534 21.2102C22.0473 21.5985 21.5715 22.1738 21.2259 22.9361C20.8849 23.6937 20.7145 24.6241 20.7145 25.7273C20.7145 26.8305 20.8849 27.7633 21.2259 28.5256C21.5715 29.2831 22.0473 29.8584 22.6534 30.2514C23.2595 30.6397 23.9579 30.8338 24.7486 30.8338C25.5393 30.8338 26.2377 30.6397 26.8438 30.2514C27.4498 29.8584 27.9233 29.2831 28.2642 28.5256C28.6098 27.7633 28.7827 26.8305 28.7827 25.7273Z" fill="#C18D52"/>
<defs>
<radialGradient id="paint0_radial_1_2" cx="0" cy="0" r="1" gradientUnits="userSpaceOnUse" gradientTransform="translate(43.5 19) rotate(163.639) scale(56.8001)">
<stop stop-color="#5A8F76"/>
<stop offset="1" stop-color="#EEE8B2"/>
</radialGradient>
</defs>
</svg>
